HIERARCHY
ROOT Hips
{
	OFFSET 0.00000 0.00000 0.00000
	CHANNELS 6 Xposition Yposition Zposition Zrotation Yrotation Xrotation 
	JOINT LHipJoint
	{
		OFFSET 0 0 0
		CHANNELS 3 Zrotation Yrotation Xrotation
		JOINT LeftHip
		{
			OFFSET 1.58895 -1.83665 0.71753
			CHANNELS 3 Zrotation Yrotation Xrotation
			JOINT LeftKnee
			{
				OFFSET 2.50528 -6.88321 0.00000
				CHANNELS 3 Zrotation Yrotation Xrotation
				JOINT LeftAnkle
				{
					OFFSET 2.63244 -7.23257 0.00000
					CHANNELS 3 Zrotation Yrotation Xrotation
					JOINT LeftToe
					{
						OFFSET 0.23691 -0.65090 1.72750
						CHANNELS 3 Zrotation Yrotation Xrotation
						End Site
						{
							OFFSET 0.00000 -0.00000 0.92561
						}
					}
				}
			}
		}
	}
	JOINT RHipJoint
	{
		OFFSET 0 0 0
		CHANNELS 3 Zrotation Yrotation Xrotation
		JOINT RightHip
		{
			OFFSET -1.51435 -1.83665 0.71753
			CHANNELS 3 Zrotation Yrotation Xrotation
			JOINT RightKnee
			{
				OFFSET -2.54551 -6.99375 0.00000
				CHANNELS 3 Zrotation Yrotation Xrotation
				JOINT RightAnkle
				{
					OFFSET -2.66027 -7.30903 0.00000
					CHANNELS 3 Zrotation Yrotation Xrotation
					JOINT RightToe
					{
						OFFSET -0.22981 -0.63138 2.03959
						CHANNELS 3 Zrotation Yrotation Xrotation
						End Site
						{
							OFFSET -0.00000 -0.00000 1.07060
						}
					}
				}
			}
		}
	}
	JOINT lowerback
	{
		OFFSET 0 0 0
		CHANNELS 3 Zrotation Yrotation Xrotation
		JOINT Chest
		{
			OFFSET -0.02651 1.86275 -0.11152
			CHANNELS 3 Zrotation Yrotation Xrotation
			JOINT Chest2
			{
				OFFSET 0.01019 1.86224 0.04087
				CHANNELS 3 Zrotation Yrotation Xrotation
				JOINT lowerneck
				{
					OFFSET 0 0 0
					CHANNELS 3 Zrotation Yrotation Xrotation
					JOINT Neck
					{
						OFFSET -0.01926 1.80512 0.08867
						CHANNELS 3 Zrotation Yrotation Xrotation
						JOINT Head
						{
							OFFSET 0.05516 1.76451 -0.38475
							CHANNELS 3 Zrotation Yrotation Xrotation
							End Site
							{
								OFFSET 0.01592 1.82587 -0.14001
							}
						}
					}
				}
				JOINT LeftCollar
				{
					OFFSET 0 0 0
					CHANNELS 3 Zrotation Yrotation Xrotation
					JOINT LeftShoulder
					{
						OFFSET 3.47116 1.51376 0.14491
CHANNELS 3 Zrotation Xrotation Yrotation
						JOINT LeftElbow
						{
OFFSET 0 -4.780950 0.000000
CHANNELS 3 Zrotation Xrotation Yrotation
							JOINT LeftWrist
							{
OFFSET 0 -3.586150 -0.000000
CHANNELS 3 Zrotation Xrotation Yrotation
								JOINT lhand
								{
									OFFSET 0 0 0
CHANNELS 3 Zrotation Xrotation Yrotation
									JOINT LFingers
									{
OFFSET 0 -0.659810 0.000000
CHANNELS 3 Zrotation Xrotation Yrotation
										End Site
										{
OFFSET 0 -0.531960 0.000000
										}
									}
								}
								JOINT LThumb
								{
OFFSET 0 0.000000 0.000000
CHANNELS 3 Zrotation Xrotation Yrotation
									End Site
									{
OFFSET 0 -0.540080 0.540080
									}
								}
							}
						}
					}
				}
				JOINT RightCollar
				{
					OFFSET 0 0 0
					CHANNELS 3 Zrotation Yrotation Xrotation
					JOINT RightShoulder
					{
						OFFSET -3.31725 1.61216 0.35156
CHANNELS 3 Zrotation Xrotation Yrotation
						JOINT RightElbow
						{
OFFSET 0 -4.489130 0.000000
CHANNELS 3 Zrotation Xrotation Yrotation
							JOINT RightWrist
							{
OFFSET 0 -3.705100 0.000000
CHANNELS 3 Zrotation Xrotation Yrotation
								JOINT rhand
								{
									OFFSET 0 0 0
CHANNELS 3 Zrotation Xrotation Yrotation
									JOINT RFingers
									{
OFFSET 0 -0.449140 0.000000
CHANNELS 3 Zrotation Xrotation Yrotation
										End Site
										{
OFFSET 0 -0.362110 0.000000
										}
									}
								}
								JOINT RThumb
								{
OFFSET 0 0.000000 0.000000
CHANNELS 3 Zrotation Xrotation Yrotation
									End Site
									{
OFFSET 0 -0.367630 0.367630
									}
								}
							}
						}
					}
				}
			}
		}
	}
}
MOTION
Frames: 15
Frame Time: .0083333
-0.4952 18.7000 5.7796 -1.4211 -2.7700 2.2437 0.0000 0.0000 0.0000 -13.9062 -8.5947 -1.2130 1.2765 7.1604 20.1913 1.6901 6.8042 -27.8132 7.8606 -16.0158 -52.0591 0.0000 0.0000 0.0000 0.0000 0.0000 0.0000 0.0000 0.0000 0.0000 -0.0000 -0.0000 0.0000 -0.0000 -0.0000 0.0000 -2.6842 2.2906 1.4374 1.5473 3.0247 -2.4934 2.9565 1.6041 -3.5987 -2.4555 -2.5947 -16.8889 1.1142 -3.4776 35.5049 0.2840 -1.6370 15.3403 -0.0000 0.0000 0.0000 12.1484 9.7687 -60.4803 126.1618 -54.4309 90.7314 16.5461 -39.4064 29.3608 0.0 0.0 0.0 -7.1250 0.0 0.0 -8.2939 -0.1479 -8.4037 -0.0000 0.0000 0.0000 -23.5079 -15.5982 17.6986 -71.8572 -58.719 -44.3555 -28.3882 -43.3542 66.3448 0.0 0.0 0.0 7.1250 0.0 -0.0 124.5063 -77.1488 135.9333
-0.4939 18.6993 5.7786 -1.3929 -2.7897 2.2383 0.0000 0.0000 0.0000 -13.9463 -8.6102 -1.1989 1.2768 7.1610 20.1933 1.6955 6.7890 -27.8413 7.8495 -16.0075 -52.0189 0.0000 0.0000 0.0000 0.0000 0.0000 0.0000 0.0000 0.0000 0.0000 -0.0000 -0.0000 0.0000 -0.0000 -0.0000 0.0000 -2.7100 2.3141 1.4155 1.5428 3.0556 -2.4823 2.9658 1.6197 -3.5783 -2.4345 -2.5890 -16.8691 1.0857 -3.4653 35.5104 0.2708 -1.6329 15.3367 0.0000 0.0000 0.0000 12.1734 9.8503 -60.4479 126.2829 -54.3889 90.8298 16.5532 -39.4611 29.4036 0.0 0.0 0.0 -7.1250 0.0 0.0 -8.2939 -0.192 -8.4101 0.0000 0.0000 0.0000 -24.06 -15.6019 16.7062 -71.1173 -58.6089 -43.7235 -26.7673 -43.9038 67.5501 0.0 0.0 0.0 7.1250 0.0 -0.0 124.7432 -76.2137 137.0498
-0.4921 18.6993 5.7776 -1.3812 -2.7927 2.2422 0.0000 0.0000 0.0000 -13.9656 -8.6188 -1.1992 1.2763 7.1597 20.1893 1.6976 6.7911 -27.8568 7.8572 -16.0132 -52.0467 0.0000 0.0000 0.0000 0.0000 0.0000 0.0000 0.0000 0.0000 0.0000 -0.0000 -0.0000 0.0000 -0.0000 -0.0000 0.0000 -2.7258 2.3357 1.3756 1.5484 3.0850 -2.4631 2.9811 1.6341 -3.5393 -2.3962 -2.5822 -16.8651 0.9899 -3.4309 35.5094 0.2301 -1.6265 15.3310 0.0000 0.0000 0.0000 12.1391 9.8869 -60.3873 126.4081 -54.3453 90.9316 16.5856 -39.447 29.4025 0.0 0.0 0.0 -7.1250 0.0 0.0 -8.2750 -0.1964 -8.3912 0.0000 0.0000 0.0000 -25.527 -16.6321 16.1316 -68.2406 -58.1331 -41.2739 -26.7375 -44.7383 66.8452 0.0 0.0 0.0 7.1250 0.0 -0.0 123.1675 -76.702 135.2
-0.4908 18.7000 5.7767 -1.3904 -2.7800 2.2492 0.0000 0.0000 0.0000 -13.9532 -8.6172 -1.2157 1.2765 7.1603 20.1910 1.6973 6.7923 -27.8553 7.8674 -16.0208 -52.0835 0.0000 0.0000 0.0000 0.0000 0.0000 0.0000 0.0000 0.0000 0.0000 -0.0000 -0.0000 0.0000 -0.0000 -0.0000 0.0000 -2.7507 2.3523 1.3485 1.5733 3.1079 -2.4597 3.0208 1.6463 -3.5250 -2.2727 -2.5772 -16.7882 0.8343 -3.4072 35.4744 0.1484 -1.6224 15.2884 -0.0000 -0.0000 0.0000 12.0377 9.8924 -60.2861 126.4934 -54.3155 91.0009 16.6627 -39.3849 29.3684 0.0 0.0 0.0 -7.1250 0.0 0.0 -8.2268 -0.175 -8.3382 -0.0000 -0.0000 0.0000 -26.5552 -17.24 15.3625 -66.3929 -57.7858 -39.7077 -29.3073 -42.9763 65.6772 0.0 0.0 0.0 7.1250 0.0 -0.0 124.4768 -77.6726 135.4023
-0.4895 18.7004 5.7750 -1.3966 -2.7608 2.2557 0.0000 0.0000 0.0000 -13.9452 -8.6198 -1.2373 1.2776 7.1634 20.2005 1.7010 6.7610 -27.8618 7.8724 -16.0246 -52.1018 0.0000 0.0000 0.0000 0.0000 0.0000 0.0000 0.0000 0.0000 0.0000 -0.0000 -0.0000 0.0000 -0.0000 -0.0000 0.0000 -2.7626 2.3731 1.3720 1.5889 3.1353 -2.4776 3.0407 1.6613 -3.5605 -2.1221 -2.5692 -16.6937 0.7101 -3.4010 35.4553 0.0725 -1.6175 15.2498 -0.0000 -0.0000 0.0000 11.9873 9.9254 -60.2184 126.5844 -54.2835 91.0748 16.6847 -39.3603 29.3233 0.0 0.0 0.0 -7.1250 0.0 0.0 -8.2096 -0.1334 -8.3145 -0.0000 -0.0000 0.0000 -27.3471 -17.6346 14.4948 -64.9149 -57.4834 -38.4592 -30.2936 -41.9842 65.2699 0.0 0.0 0.0 7.1250 0.0 -0.0 125.2209 -78.015 135.7301
-0.4873 18.6996 5.7728 -1.3886 -2.7313 2.2536 0.0000 0.0000 0.0000 -13.9552 -8.6109 -1.2610 1.2801 7.1701 20.2202 1.7025 6.7134 -27.8439 7.8873 -16.0357 -52.1557 0.0000 0.0000 0.0000 0.0000 0.0000 0.0000 0.0000 0.0000 0.0000 -0.0000 -0.0000 0.0000 -0.0000 -0.0000 0.0000 -2.7434 2.3961 1.4236 1.5812 3.1653 -2.4962 3.0177 1.6766 -3.6097 -2.0929 -2.5681 -16.6368 0.6930 -3.4033 35.4711 0.0607 -1.6168 15.2429 -0.0000 0.0000 0.0000 11.991 9.9885 -60.1865 126.6592 -54.2571 91.1355 16.5722 -39.3253 29.1847 0.0 0.0 0.0 -7.1250 0.0 0.0 -8.2615 0.0248 -8.3452 -0.0000 0.0000 0.0000 -28.0763 -18.0402 13.5785 -63.3665 -57.1423 -37.156 -28.9712 -42.7549 65.3901 0.0 0.0 0.0 7.1250 0.0 -0.0 123.2454 -77.8565 134.1377
-0.4851 18.6991 5.7710 -1.3848 -2.7139 2.2506 0.0000 0.0000 0.0000 -13.9614 -8.6069 -1.3009 1.2871 7.1889 20.2763 1.6980 6.7129 -27.8126 7.9071 -16.0505 -52.2275 0.0000 0.0000 0.0000 0.0000 0.0000 0.0000 0.0000 0.0000 0.0000 -0.0000 -0.0000 0.0000 -0.0000 -0.0000 0.0000 -2.7047 2.4250 1.4549 1.5642 3.2040 -2.5058 2.9748 1.6951 -3.6369 -2.1507 -2.5790 -16.6127 0.7426 -3.4189 35.5071 0.0892 -1.6238 15.2576 -0.0000 -0.0000 0.0000 11.9911 10.0454 -60.1381 126.6900 -54.2463 91.1605 16.4765 -39.2855 29.0954 0.0 0.0 0.0 -7.1250 0.0 0.0 -8.3088 0.1302 -8.3785 -0.0000 -0.0000 0.0000 -28.7537 -18.4698 12.5904 -61.7909 -56.7686 -35.8352 -28.4169 -42.7047 65.74 0.0 0.0 0.0 7.1250 0.0 -0.0 123.1686 -77.5761 134.3426
-0.4754 18.7015 5.7649 -1.3864 -2.8316 2.3289 0.0000 0.0000 0.0000 -14.0178 -8.7307 -1.3859 1.2951 7.2103 20.3401 1.7064 6.8561 -27.9564 7.8821 -16.0318 -52.1368 0.0000 0.0000 0.0000 0.0000 0.0000 0.0000 0.0000 0.0000 0.0000 -0.0000 -0.0000 0.0000 -0.0000 -0.0000 0.0000 -2.5651 2.5020 1.4679 1.5297 3.3098 -2.5444 2.8538 1.7445 -3.6816 -2.1596 -2.5796 -16.6310 0.7332 -3.4126 35.5694 0.0874 -1.6227 15.2919 0.0000 0.0000 0.0000 11.9701 10.0701 -60.0831 126.7163 -54.237 91.1819 16.4754 -39.2727 29.0891 0.0 0.0 0.0 -7.1250 0.0 0.0 -8.3089 0.1369 -8.3776 0.0000 0.0000 0.0000 -29.4756 -18.8809 11.6254 -60.3200 -56.3946 -34.6075 -29.036 -41.8121 65.9813 0.0 0.0 0.0 7.1250 0.0 -0.0 124.7207 -77.4409 135.8391
-0.4496 18.7060 5.7492 -1.3864 -3.1569 2.5351 0.0000 0.0000 0.0000 -14.1665 -9.0082 -1.5772 1.3038 7.2335 20.4090 1.7294 7.1935 -28.3185 7.8139 -15.9807 -51.8896 0.0000 0.0000 0.0000 0.0000 0.0000 0.0000 0.0000 0.0000 0.0000 -0.0000 -0.0000 0.0000 -0.0000 -0.0000 0.0000 -2.2062 2.6531 1.5065 1.4493 3.5202 -2.6337 2.5546 1.8402 -3.7828 -2.1035 -2.5667 -16.6805 0.6448 -3.3773 35.6321 0.0457 -1.6115 15.3294 0.0000 0.0000 0.0000 11.9687 10.0789 -60.0628 126.7602 -54.2214 91.2175 16.5534 -39.3022 29.0728 0.0 0.0 0.0 -7.1250 0.0 0.0 -8.2618 0.1402 -8.3286 0.0000 0.0000 0.0000 -30.0359 -19.089 10.5548 -59.2730 -56.1131 -33.7369 -29.5519 -40.9249 66.1045 0.0 0.0 0.0 7.1250 0.0 -0.0 125.8121 -77.3763 136.8543
-0.4485 18.7055 5.7491 -1.3849 -3.1189 2.5237 0.0000 0.0000 0.0000 -14.1370 -8.8710 -1.6720 1.3112 7.2532 20.4676 1.7253 7.0478 -28.2015 7.8239 -15.9882 -51.9260 0.0000 0.0000 0.0000 0.0000 0.0000 0.0000 0.0000 0.0000 0.0000 -0.0000 -0.0000 0.0000 -0.0000 -0.0000 0.0000 -2.1906 2.6814 1.5173 1.4511 3.5584 -2.6183 2.5456 1.8585 -3.7744 -2.0670 -2.5616 -16.7231 0.5846 -3.3581 35.7012 0.0165 -1.6058 15.3702 0.0000 0.0000 0.0000 12.0358 10.1487 -60.0397 126.8012 -54.2069 91.2507 16.5166 -39.3132 29.0932 0.0 0.0 0.0 -7.1250 0.0 0.0 -8.2852 0.1258 -8.3549 0.0000 0.0000 0.0000 -30.3666 -19.0556 9.4153 -58.5944 -55.9236 -33.1741 -30.3102 -39.5695 66.2441 0.0 0.0 0.0 7.1250 0.0 -0.0 127.3072 -77.3007 138.223
-0.4466 18.7055 5.7486 -1.3832 -3.0625 2.5394 0.0000 0.0000 0.0000 -14.1245 -8.8362 -1.7547 1.3175 7.2699 20.5174 1.7219 6.9772 -28.1350 7.8368 -15.9979 -51.9728 0.0000 0.0000 0.0000 0.0000 0.0000 0.0000 0.0000 0.0000 0.0000 -0.0000 -0.0000 0.0000 -0.0000 -0.0000 0.0000 -2.1523 2.6975 1.5374 1.4298 3.5802 -2.6327 2.4997 1.8684 -3.7982 -1.9987 -2.5507 -16.7102 0.5114 -3.3370 35.7506 -0.0226 -1.5974 15.3871 0.0000 0.0000 0.0000 12.1309 10.2594 -59.9786 126.8026 -54.2064 91.2519 16.3285 -39.2321 29.2215 0.0 0.0 0.0 -7.1250 0.0 0.0 -8.4071 0.0282 -8.4949 0.0000 0.0000 0.0000 -30.9142 -19.1911 8.4188 -57.4746 -55.5986 -32.2484 -30.6984 -38.8083 66.2378 0.0 0.0 0.0 7.1250 0.0 -0.0 127.9151 -77.3154 138.7341
-0.4447 18.7066 5.7467 -1.3670 -2.9804 2.5729 0.0000 0.0000 0.0000 -14.1344 -8.8828 -1.8184 1.3196 7.2754 20.5340 1.7186 6.9446 -28.0933 7.8446 -16.0038 -52.0012 0.0000 0.0000 0.0000 0.0000 0.0000 0.0000 0.0000 0.0000 0.0000 -0.0000 -0.0000 0.0000 -0.0000 -0.0000 0.0000 -2.1260 2.7144 1.5854 1.4047 3.6021 -2.6617 2.4546 1.8790 -3.8534 -1.8875 -2.5422 -16.6583 0.3683 -3.3071 35.7438 -0.0962 -1.5899 15.3646 -0.0000 0.0000 0.0000 12.2 10.3245 -59.9466 126.7866 -54.2121 91.2389 16.2632 -39.0962 29.3468 0.0 0.0 0.0 -7.1250 0.0 0.0 -8.4572 -0.0868 -8.5637 -0.0000 0.0000 0.0000 -31.7361 -19.5433 7.4657 -55.9545 -55.1319 -30.9977 -30.4609 -38.9551 66.0481 0.0 0.0 0.0 7.1250 0.0 -0.0 127.1597 -77.4502 137.9555
-0.4433 18.7074 5.7457 -1.3523 -2.9236 2.6034 0.0000 0.0000 0.0000 -14.1325 -8.8658 -1.8994 1.3217 7.2811 20.5510 1.7162 6.8749 -28.0348 7.8497 -16.0076 -52.0194 0.0000 0.0000 0.0000 0.0000 0.0000 0.0000 0.0000 0.0000 0.0000 -0.0000 -0.0000 0.0000 -0.0000 -0.0000 0.0000 -2.1026 2.7455 1.6246 1.3930 3.6436 -2.6837 2.4246 1.8995 -3.8987 -1.8749 -2.5586 -16.6278 0.3078 -3.3118 35.7372 -0.1240 -1.5984 15.3525 0.0000 0.0000 0.0000 12.2236 10.3888 -59.948 126.7719 -54.2173 91.227 16.3637 -39.0067 29.324 0.0 0.0 0.0 -7.1250 0.0 0.0 -8.3965 -0.0805 -8.5 0.0000 0.0000 0.0000 -32.5969 -19.8835 6.484 -54.5336 -54.668 -29.8351 -30.6353 -38.7016 66.0154 0.0 0.0 0.0 7.1250 0.0 -0.0 127.3771 -77.4796 138.1165
-0.4425 18.7079 5.7453 -1.3580 -2.8836 2.6262 0.0000 0.0000 0.0000 -14.1003 -8.7837 -1.9907 1.3244 7.2883 20.5724 1.7085 6.7940 -27.9330 7.8542 -16.0110 -52.0359 0.0000 0.0000 0.0000 0.0000 0.0000 0.0000 0.0000 0.0000 0.0000 -0.0000 -0.0000 0.0000 -0.0000 -0.0000 0.0000 -2.0785 2.7675 1.6340 1.3955 3.6738 -2.6819 2.4116 1.9139 -3.9026 -1.9136 -2.5650 -16.6221 0.3206 -3.3116 35.7265 -0.1115 -1.6015 15.3473 0.0000 0.0000 0.0000 12.2506 10.4822 -59.9207 126.8056 -54.2053 91.2543 16.4264 -39.0133 29.2396 0.0 0.0 0.0 -7.1250 0.0 0.0 -8.3519 -0.0062 -8.4429 0.0000 0.0000 0.0000 -33.4397 -20.2775 5.4956 -53.1567 -54.192 -28.7152 -30.8156 -38.2266 66.1365 0.0 0.0 0.0 7.1250 0.0 -0.0 127.9074 -77.394 138.6546
-0.4416 18.7080 5.7447 -1.3703 -2.8429 2.6308 0.0000 0.0000 0.0000 -14.0739 -8.7509 -2.0395 1.3278 7.2972 20.5988 1.7011 6.7563 -27.8597 7.8684 -16.0216 -52.0874 0.0000 0.0000 0.0000 0.0000 0.0000 0.0000 0.0000 0.0000 0.0000 -0.0000 -0.0000 0.0000 -0.0000 -0.0000 0.0000 -2.0623 2.7879 1.6373 1.4080 3.7019 -2.6518 2.4145 1.9270 -3.8747 -1.9193 -2.5567 -16.6272 0.3012 -3.2875 35.6964 -0.1141 -1.5945 15.3333 0.0000 0.0000 0.0000 12.3108 10.5541 -59.905 126.9151 -54.1664 91.3431 16.3818 -39.0601 29.207 0.0 0.0 0.0 -7.1250 0.0 0.0 -8.3747 0.0339 -8.4607 0.0000 0.0000 0.0000 -34.2029 -20.7716 4.4064 -51.8226 -53.7046 -27.6365 -31.0672 -37.4248 66.0374 0.0 0.0 0.0 7.1250 0.0 -0.0 128.1242 -77.4741 138.7676
